<svg xmlns="http://www.w3.org/2000/svg" xmlns:xlink="http://www.w3.org/1999/xlink" width="1600" zoomAndPan="magnify" viewBox="0 0 1200 683.999997" height="912" preserveAspectRatio="xMidYMid meet" version="1.0"><defs><g/></defs><rect x="-120" width="1440" fill="#ffffff" y="-68.4" height="820.799996" fill-opacity="1"/><rect x="-120" width="1440" fill="#050a30" y="-68.4" height="820.799996" fill-opacity="1"/><g fill="#ffffff" fill-opacity="1"><g transform="translate(300.605439, 399.750001)"><g><path d="M 124.703125 -98.75 L 124.703125 -95.96875 C 121.722656 -95.875 119.488281 -95.523438 118 -94.921875 C 116.507812 -94.316406 115.507812 -93.195312 115 -91.5625 C 114.488281 -89.9375 114.234375 -87.40625 114.234375 -83.96875 L 114.234375 -14.78125 C 114.234375 -11.4375 114.488281 -8.925781 115 -7.25 C 115.507812 -5.582031 116.507812 -4.46875 118 -3.90625 C 119.488281 -3.34375 121.722656 -2.972656 124.703125 -2.796875 L 124.703125 0 C 122.097656 -0.1875 118.816406 -0.300781 114.859375 -0.34375 C 110.910156 -0.394531 106.890625 -0.421875 102.796875 -0.421875 C 98.335938 -0.421875 94.15625 -0.394531 90.25 -0.34375 C 86.34375 -0.300781 83.179688 -0.1875 80.765625 0 L 80.765625 -2.796875 C 83.921875 -2.972656 86.3125 -3.34375 87.9375 -3.90625 C 89.570312 -4.46875 90.664062 -5.582031 91.21875 -7.25 C 91.78125 -8.925781 92.0625 -11.4375 92.0625 -14.78125 L 92.0625 -90.25 L 93.03125 -90.25 L 58.4375 0.140625 L 56.21875 0.140625 L 18.546875 -89.6875 L 18.546875 -22.875 C 18.546875 -17.757812 18.820312 -13.828125 19.375 -11.078125 C 19.9375 -8.335938 21.171875 -6.382812 23.078125 -5.21875 C 24.984375 -4.0625 27.984375 -3.253906 32.078125 -2.796875 L 32.078125 0 C 30.316406 -0.1875 27.992188 -0.300781 25.109375 -0.34375 C 22.222656 -0.394531 19.523438 -0.421875 17.015625 -0.421875 C 14.878906 -0.421875 12.691406 -0.394531 10.453125 -0.34375 C 8.222656 -0.300781 6.363281 -0.1875 4.875 0 L 4.875 -2.796875 C 7.851562 -3.253906 10.085938 -4.039062 11.578125 -5.15625 C 13.066406 -6.269531 14.066406 -8.101562 14.578125 -10.65625 C 15.085938 -13.21875 15.34375 -16.734375 15.34375 -21.203125 L 15.34375 -83.96875 C 15.34375 -87.40625 15.085938 -89.9375 14.578125 -91.5625 C 14.066406 -93.195312 13.039062 -94.316406 11.5 -94.921875 C 9.96875 -95.523438 7.757812 -95.875 4.875 -95.96875 L 4.875 -98.75 C 6.363281 -98.65625 8.222656 -98.5625 10.453125 -98.46875 C 12.691406 -98.382812 14.878906 -98.34375 17.015625 -98.34375 C 21.015625 -98.34375 24.941406 -98.382812 28.796875 -98.46875 C 32.660156 -98.5625 36.082031 -98.65625 39.0625 -98.75 L 68.34375 -28.03125 L 64.859375 -24.828125 L 92.890625 -98.34375 C 94.472656 -98.34375 96.101562 -98.34375 97.78125 -98.34375 C 99.457031 -98.34375 101.128906 -98.34375 102.796875 -98.34375 C 106.890625 -98.34375 110.910156 -98.382812 114.859375 -98.46875 C 118.816406 -98.5625 122.097656 -98.65625 124.703125 -98.75 Z M 124.703125 -98.75 "/></g></g></g><g fill="#ffffff" fill-opacity="1"><g transform="translate(427.250058, 399.750001)"><g><path d="M 39.328125 -74.0625 C 47.515625 -74.0625 53.929688 -71.644531 58.578125 -66.8125 C 63.234375 -61.976562 65.5625 -54.070312 65.5625 -43.09375 L 19.671875 -43.09375 L 19.390625 -45.75 L 47.984375 -45.75 C 48.078125 -50.300781 47.796875 -54.503906 47.140625 -58.359375 C 46.492188 -62.222656 45.472656 -65.316406 44.078125 -67.640625 C 42.679688 -69.972656 40.820312 -71.140625 38.5 -71.140625 C 35.238281 -71.140625 32.46875 -69.09375 30.1875 -65 C 27.914062 -60.90625 26.546875 -54.117188 26.078125 -44.640625 L 26.5 -43.796875 C 26.40625 -42.679688 26.332031 -41.519531 26.28125 -40.3125 C 26.238281 -39.101562 26.21875 -37.847656 26.21875 -36.546875 C 26.21875 -30.128906 27.125 -24.921875 28.9375 -20.921875 C 30.75 -16.921875 33.050781 -14.015625 35.84375 -12.203125 C 38.632812 -10.390625 41.472656 -9.484375 44.359375 -9.484375 C 46.304688 -9.484375 48.328125 -9.785156 50.421875 -10.390625 C 52.515625 -10.992188 54.628906 -12.109375 56.765625 -13.734375 C 58.910156 -15.367188 60.910156 -17.671875 62.765625 -20.640625 L 65.28125 -19.8125 C 64.164062 -16.269531 62.398438 -12.828125 59.984375 -9.484375 C 57.566406 -6.140625 54.492188 -3.394531 50.765625 -1.25 C 47.046875 0.882812 42.582031 1.953125 37.375 1.953125 C 31.050781 1.953125 25.472656 0.601562 20.640625 -2.09375 C 15.804688 -4.789062 12.015625 -8.878906 9.265625 -14.359375 C 6.523438 -19.847656 5.15625 -26.828125 5.15625 -35.296875 C 5.15625 -43.941406 6.617188 -51.144531 9.546875 -56.90625 C 12.484375 -62.675781 16.53125 -66.976562 21.6875 -69.8125 C 26.851562 -72.644531 32.734375 -74.0625 39.328125 -74.0625 Z M 39.328125 -74.0625 "/></g></g></g><g fill="#ffffff" fill-opacity="1"><g transform="translate(496.70933, 399.750001)"><g><path d="M 53.984375 -74.0625 C 57.890625 -74.0625 61.050781 -73.570312 63.46875 -72.59375 C 65.882812 -71.625 67.835938 -70.300781 69.328125 -68.625 C 70.816406 -66.851562 71.882812 -64.550781 72.53125 -61.71875 C 73.1875 -58.882812 73.515625 -55.144531 73.515625 -50.5 L 73.515625 -12.96875 C 73.515625 -9.0625 74.117188 -6.410156 75.328125 -5.015625 C 76.535156 -3.617188 78.625 -2.921875 81.59375 -2.921875 L 81.59375 0 C 79.925781 -0.09375 77.394531 -0.207031 74 -0.34375 C 70.601562 -0.488281 67.273438 -0.5625 64.015625 -0.5625 C 60.671875 -0.5625 57.367188 -0.488281 54.109375 -0.34375 C 50.859375 -0.207031 48.398438 -0.09375 46.734375 0 L 46.734375 -2.921875 C 49.242188 -2.921875 50.984375 -3.617188 51.953125 -5.015625 C 52.929688 -6.410156 53.421875 -9.0625 53.421875 -12.96875 L 53.421875 -56.359375 C 53.421875 -58.679688 53.234375 -60.703125 52.859375 -62.421875 C 52.492188 -64.140625 51.773438 -65.484375 50.703125 -66.453125 C 49.628906 -67.429688 48.023438 -67.921875 45.890625 -67.921875 C 43.472656 -67.921875 41.238281 -67.222656 39.1875 -65.828125 C 37.144531 -64.441406 35.492188 -62.515625 34.234375 -60.046875 C 32.984375 -57.585938 32.359375 -54.820312 32.359375 -51.75 L 32.359375 -12.96875 C 32.359375 -9.0625 32.867188 -6.410156 33.890625 -5.015625 C 34.910156 -3.617188 36.632812 -2.921875 39.0625 -2.921875 L 39.0625 0 C 37.570312 -0.09375 35.269531 -0.207031 32.15625 -0.34375 C 29.039062 -0.488281 25.851562 -0.5625 22.59375 -0.5625 C 19.0625 -0.5625 15.4375 -0.488281 11.71875 -0.34375 C 8 -0.207031 5.207031 -0.09375 3.34375 0 L 3.34375 -2.921875 C 6.601562 -2.921875 8.90625 -3.617188 10.25 -5.015625 C 11.601562 -6.410156 12.28125 -9.0625 12.28125 -12.96875 L 12.28125 -56.90625 C 12.28125 -61.09375 11.648438 -64.1875 10.390625 -66.1875 C 9.140625 -68.1875 6.789062 -69.1875 3.34375 -69.1875 L 3.34375 -72.109375 C 6.320312 -71.828125 9.207031 -71.6875 12 -71.6875 C 15.90625 -71.6875 19.550781 -71.847656 22.9375 -72.171875 C 26.332031 -72.503906 29.472656 -72.992188 32.359375 -73.640625 L 32.359375 -61.09375 C 34.585938 -65.738281 37.609375 -69.0625 41.421875 -71.0625 C 45.234375 -73.0625 49.421875 -74.0625 53.984375 -74.0625 Z M 95.96875 -74.0625 C 99.875 -74.0625 103.035156 -73.570312 105.453125 -72.59375 C 107.867188 -71.625 109.820312 -70.300781 111.3125 -68.625 C 112.800781 -66.851562 113.867188 -64.550781 114.515625 -61.71875 C 115.171875 -58.882812 115.5 -55.144531 115.5 -50.5 L 115.5 -12.96875 C 115.5 -9.0625 116.171875 -6.410156 117.515625 -5.015625 C 118.859375 -3.617188 121.160156 -2.921875 124.421875 -2.921875 L 124.421875 0 C 122.648438 -0.09375 120 -0.207031 116.46875 -0.34375 C 112.9375 -0.488281 109.453125 -0.5625 106.015625 -0.5625 C 102.660156 -0.5625 99.351562 -0.488281 96.09375 -0.34375 C 92.84375 -0.207031 90.382812 -0.09375 88.71875 0 L 88.71875 -2.921875 C 91.226562 -2.921875 92.96875 -3.617188 93.9375 -5.015625 C 94.914062 -6.410156 95.40625 -9.0625 95.40625 -12.96875 L 95.40625 -56.359375 C 95.40625 -58.679688 95.195312 -60.703125 94.78125 -62.421875 C 94.363281 -64.140625 93.570312 -65.484375 92.40625 -66.453125 C 91.25 -67.429688 89.457031 -67.921875 87.03125 -67.921875 C 84.613281 -67.921875 82.382812 -67.175781 80.34375 -65.6875 C 78.300781 -64.207031 76.648438 -62.210938 75.390625 -59.703125 C 74.140625 -57.191406 73.46875 -54.398438 73.375 -51.328125 L 72.671875 -59.84375 C 75.179688 -65.414062 78.503906 -69.175781 82.640625 -71.125 C 86.785156 -73.082031 91.226562 -74.0625 95.96875 -74.0625 Z M 95.96875 -74.0625 "/></g></g></g><g fill="#ffffff" fill-opacity="1"><g transform="translate(622.935554, 399.750001)"><g><path d="M 39.328125 -74.0625 C 47.515625 -74.0625 53.929688 -71.644531 58.578125 -66.8125 C 63.234375 -61.976562 65.5625 -54.070312 65.5625 -43.09375 L 19.671875 -43.09375 L 19.390625 -45.75 L 47.984375 -45.75 C 48.078125 -50.300781 47.796875 -54.503906 47.140625 -58.359375 C 46.492188 -62.222656 45.472656 -65.316406 44.078125 -67.640625 C 42.679688 -69.972656 40.820312 -71.140625 38.5 -71.140625 C 35.238281 -71.140625 32.46875 -69.09375 30.1875 -65 C 27.914062 -60.90625 26.546875 -54.117188 26.078125 -44.640625 L 26.5 -43.796875 C 26.40625 -42.679688 26.332031 -41.519531 26.28125 -40.3125 C 26.238281 -39.101562 26.21875 -37.847656 26.21875 -36.546875 C 26.21875 -30.128906 27.125 -24.921875 28.9375 -20.921875 C 30.75 -16.921875 33.050781 -14.015625 35.84375 -12.203125 C 38.632812 -10.390625 41.472656 -9.484375 44.359375 -9.484375 C 46.304688 -9.484375 48.328125 -9.785156 50.421875 -10.390625 C 52.515625 -10.992188 54.628906 -12.109375 56.765625 -13.734375 C 58.910156 -15.367188 60.910156 -17.671875 62.765625 -20.640625 L 65.28125 -19.8125 C 64.164062 -16.269531 62.398438 -12.828125 59.984375 -9.484375 C 57.566406 -6.140625 54.492188 -3.394531 50.765625 -1.25 C 47.046875 0.882812 42.582031 1.953125 37.375 1.953125 C 31.050781 1.953125 25.472656 0.601562 20.640625 -2.09375 C 15.804688 -4.789062 12.015625 -8.878906 9.265625 -14.359375 C 6.523438 -19.847656 5.15625 -26.828125 5.15625 -35.296875 C 5.15625 -43.941406 6.617188 -51.144531 9.546875 -56.90625 C 12.484375 -62.675781 16.53125 -66.976562 21.6875 -69.8125 C 26.851562 -72.644531 32.734375 -74.0625 39.328125 -74.0625 Z M 39.328125 -74.0625 "/></g></g></g><g fill="#ffffff" fill-opacity="1"><g transform="translate(692.394825, 399.750001)"><g><path d="M 55.234375 -74.0625 C 59.140625 -74.0625 62.320312 -73.570312 64.78125 -72.59375 C 67.25 -71.625 69.179688 -70.300781 70.578125 -68.625 C 72.066406 -66.851562 73.160156 -64.570312 73.859375 -61.78125 C 74.554688 -59 74.90625 -55.238281 74.90625 -50.5 L 74.90625 -12.96875 C 74.90625 -9.0625 75.578125 -6.410156 76.921875 -5.015625 C 78.273438 -3.617188 80.578125 -2.921875 83.828125 -2.921875 L 83.828125 0 C 82.066406 -0.09375 79.414062 -0.207031 75.875 -0.34375 C 72.34375 -0.488281 68.859375 -0.5625 65.421875 -0.5625 C 61.890625 -0.5625 58.425781 -0.488281 55.03125 -0.34375 C 51.632812 -0.207031 49.050781 -0.09375 47.28125 0 L 47.28125 -2.921875 C 50.070312 -2.921875 52.023438 -3.617188 53.140625 -5.015625 C 54.253906 -6.410156 54.8125 -9.0625 54.8125 -12.96875 L 54.8125 -56.359375 C 54.8125 -58.679688 54.578125 -60.703125 54.109375 -62.421875 C 53.648438 -64.140625 52.816406 -65.484375 51.609375 -66.453125 C 50.398438 -67.429688 48.585938 -67.921875 46.171875 -67.921875 C 43.660156 -67.921875 41.359375 -67.222656 39.265625 -65.828125 C 37.171875 -64.441406 35.492188 -62.515625 34.234375 -60.046875 C 32.984375 -57.585938 32.359375 -54.820312 32.359375 -51.75 L 32.359375 -12.96875 C 32.359375 -9.0625 32.9375 -6.410156 34.09375 -5.015625 C 35.257812 -3.617188 37.191406 -2.921875 39.890625 -2.921875 L 39.890625 0 C 38.210938 -0.09375 35.769531 -0.207031 32.5625 -0.34375 C 29.351562 -0.488281 26.03125 -0.5625 22.59375 -0.5625 C 19.0625 -0.5625 15.4375 -0.488281 11.71875 -0.34375 C 8 -0.207031 5.207031 -0.09375 3.34375 0 L 3.34375 -2.921875 C 6.601562 -2.921875 8.90625 -3.617188 10.25 -5.015625 C 11.601562 -6.410156 12.28125 -9.0625 12.28125 -12.96875 L 12.28125 -56.90625 C 12.28125 -61.09375 11.648438 -64.1875 10.390625 -66.1875 C 9.140625 -68.1875 6.789062 -69.1875 3.34375 -69.1875 L 3.34375 -72.109375 C 6.320312 -71.828125 9.207031 -71.6875 12 -71.6875 C 15.90625 -71.6875 19.550781 -71.847656 22.9375 -72.171875 C 26.332031 -72.503906 29.472656 -72.992188 32.359375 -73.640625 L 32.359375 -61.09375 C 34.679688 -65.832031 37.84375 -69.175781 41.84375 -71.125 C 45.84375 -73.082031 50.304688 -74.0625 55.234375 -74.0625 Z M 55.234375 -74.0625 "/></g></g></g><g fill="#ffffff" fill-opacity="1"><g transform="translate(778.033386, 399.750001)"><g><path d="M 31.65625 -94.984375 L 31.65625 -72.109375 L 48.125 -72.109375 L 48.125 -69.328125 L 31.65625 -69.328125 L 31.65625 -12.96875 C 31.65625 -10.175781 32.164062 -8.195312 33.1875 -7.03125 C 34.21875 -5.875 35.753906 -5.296875 37.796875 -5.296875 C 39.472656 -5.296875 41.144531 -5.921875 42.8125 -7.171875 C 44.488281 -8.429688 45.976562 -10.597656 47.28125 -13.671875 L 49.65625 -12.421875 C 48.164062 -8.234375 45.910156 -4.789062 42.890625 -2.09375 C 39.867188 0.601562 35.753906 1.953125 30.546875 1.953125 C 27.472656 1.953125 24.773438 1.554688 22.453125 0.765625 C 20.128906 -0.0234375 18.175781 -1.210938 16.59375 -2.796875 C 14.550781 -4.835938 13.203125 -7.367188 12.546875 -10.390625 C 11.898438 -13.410156 11.578125 -17.335938 11.578125 -22.171875 L 11.578125 -69.328125 L -0.140625 -69.328125 L -0.140625 -72.109375 L 11.578125 -72.109375 L 11.578125 -90.53125 C 15.484375 -90.53125 19.085938 -90.878906 22.390625 -91.578125 C 25.691406 -92.273438 28.78125 -93.410156 31.65625 -94.984375 Z M 31.65625 -94.984375 "/></g></g></g><g fill="#ffffff" fill-opacity="1"><g transform="translate(827.129133, 399.750001)"><g><path d="M 22.59375 0.96875 C 18.40625 0.96875 14.914062 0.179688 12.125 -1.390625 C 9.34375 -2.972656 7.300781 -5.085938 6 -7.734375 C 4.695312 -10.390625 4.046875 -13.296875 4.046875 -16.453125 C 4.046875 -20.453125 4.953125 -23.707031 6.765625 -26.21875 C 8.578125 -28.726562 10.925781 -30.773438 13.8125 -32.359375 C 16.695312 -33.941406 19.738281 -35.242188 22.9375 -36.265625 C 26.144531 -37.285156 29.210938 -38.285156 32.140625 -39.265625 C 35.078125 -40.242188 37.453125 -41.40625 39.265625 -42.75 C 41.078125 -44.101562 41.984375 -45.847656 41.984375 -47.984375 L 41.984375 -58.859375 C 41.984375 -61.273438 41.585938 -63.4375 40.796875 -65.34375 C 40.003906 -67.25 38.796875 -68.710938 37.171875 -69.734375 C 35.546875 -70.765625 33.429688 -71.28125 30.828125 -71.28125 C 28.960938 -71.28125 27.097656 -71.023438 25.234375 -70.515625 C 23.378906 -70.003906 21.847656 -69.140625 20.640625 -67.921875 C 23.242188 -66.992188 25.265625 -65.578125 26.703125 -63.671875 C 28.148438 -61.765625 28.875 -59.601562 28.875 -57.1875 C 28.875 -54.03125 27.78125 -51.519531 25.59375 -49.65625 C 23.40625 -47.789062 20.828125 -46.859375 17.859375 -46.859375 C 14.503906 -46.859375 11.96875 -47.90625 10.25 -50 C 8.53125 -52.09375 7.671875 -54.628906 7.671875 -57.609375 C 7.671875 -60.304688 8.34375 -62.535156 9.6875 -64.296875 C 11.039062 -66.066406 12.925781 -67.742188 15.34375 -69.328125 C 17.945312 -70.816406 21.082031 -71.976562 24.75 -72.8125 C 28.425781 -73.644531 32.40625 -74.0625 36.6875 -74.0625 C 40.957031 -74.0625 44.8125 -73.617188 48.25 -72.734375 C 51.695312 -71.859375 54.582031 -70.253906 56.90625 -67.921875 C 59.050781 -65.785156 60.445312 -63.160156 61.09375 -60.046875 C 61.75 -56.929688 62.078125 -53.003906 62.078125 -48.265625 L 62.078125 -10.328125 C 62.078125 -7.992188 62.304688 -6.382812 62.765625 -5.5 C 63.234375 -4.625 64.023438 -4.1875 65.140625 -4.1875 C 65.972656 -4.1875 66.785156 -4.414062 67.578125 -4.875 C 68.367188 -5.34375 69.226562 -5.90625 70.15625 -6.5625 L 71.5625 -4.1875 C 69.601562 -2.507812 67.34375 -1.226562 64.78125 -0.34375 C 62.226562 0.53125 59.375 0.96875 56.21875 0.96875 C 52.769531 0.96875 50.019531 0.484375 47.96875 -0.484375 C 45.925781 -1.460938 44.460938 -2.785156 43.578125 -4.453125 C 42.703125 -6.128906 42.265625 -8.085938 42.265625 -10.328125 C 40.035156 -6.785156 37.335938 -4.015625 34.171875 -2.015625 C 31.015625 -0.0234375 27.15625 0.96875 22.59375 0.96875 Z M 32.5 -7.953125 C 34.363281 -7.953125 36.0625 -8.390625 37.59375 -9.265625 C 39.125 -10.148438 40.585938 -11.617188 41.984375 -13.671875 L 41.984375 -42.265625 C 41.148438 -40.867188 39.988281 -39.613281 38.5 -38.5 C 37.007812 -37.382812 35.425781 -36.242188 33.75 -35.078125 C 32.082031 -33.921875 30.476562 -32.644531 28.9375 -31.25 C 27.40625 -29.851562 26.175781 -28.128906 25.25 -26.078125 C 24.320312 -24.035156 23.859375 -21.570312 23.859375 -18.6875 C 23.859375 -15.0625 24.644531 -12.363281 26.21875 -10.59375 C 27.800781 -8.832031 29.894531 -7.953125 32.5 -7.953125 Z M 32.5 -7.953125 "/></g></g></g><g fill="#7a6200" fill-opacity="1"><g transform="translate(826.035778, 314.696578)"><g><path d="M 6.8125 -12.75 C 7.4375 -12.75 8.007812 -12.679688 8.53125 -12.546875 C 9.050781 -12.410156 9.476562 -12.238281 9.8125 -12.03125 C 10.226562 -11.769531 10.550781 -11.453125 10.78125 -11.078125 C 11.019531 -10.703125 11.140625 -10.265625 11.140625 -9.765625 C 11.140625 -9.203125 10.960938 -8.738281 10.609375 -8.375 C 10.253906 -8.019531 9.796875 -7.84375 9.234375 -7.84375 C 8.679688 -7.84375 8.234375 -8.003906 7.890625 -8.328125 C 7.554688 -8.648438 7.390625 -9.082031 7.390625 -9.625 C 7.390625 -10.132812 7.550781 -10.5625 7.875 -10.90625 C 8.195312 -11.25 8.5625 -11.476562 8.96875 -11.59375 C 8.84375 -11.75 8.648438 -11.882812 8.390625 -12 C 8.140625 -12.113281 7.851562 -12.171875 7.53125 -12.171875 C 7.039062 -12.171875 6.601562 -12.023438 6.21875 -11.734375 C 5.84375 -11.441406 5.523438 -11.039062 5.265625 -10.53125 C 5.015625 -10.019531 4.820312 -9.421875 4.6875 -8.734375 C 4.550781 -8.046875 4.484375 -7.296875 4.484375 -6.484375 C 4.484375 -5.242188 4.640625 -4.269531 4.953125 -3.5625 C 5.265625 -2.863281 5.664062 -2.367188 6.15625 -2.078125 C 6.644531 -1.796875 7.15625 -1.65625 7.6875 -1.65625 C 7.988281 -1.65625 8.316406 -1.703125 8.671875 -1.796875 C 9.035156 -1.890625 9.40625 -2.082031 9.78125 -2.375 C 10.15625 -2.664062 10.503906 -3.070312 10.828125 -3.59375 L 11.234375 -3.453125 C 11.054688 -2.859375 10.765625 -2.265625 10.359375 -1.671875 C 9.960938 -1.085938 9.441406 -0.601562 8.796875 -0.21875 C 8.160156 0.15625 7.378906 0.34375 6.453125 0.34375 C 5.410156 0.34375 4.46875 0.113281 3.625 -0.34375 C 2.789062 -0.800781 2.117188 -1.503906 1.609375 -2.453125 C 1.109375 -3.410156 0.859375 -4.640625 0.859375 -6.140625 C 0.859375 -7.578125 1.117188 -8.785156 1.640625 -9.765625 C 2.160156 -10.753906 2.867188 -11.5 3.765625 -12 C 4.660156 -12.5 5.675781 -12.75 6.8125 -12.75 Z M 6.8125 -12.75 "/></g></g></g><g fill="#7a6200" fill-opacity="1"><g transform="translate(837.939808, 314.696578)"><g><path d="M 6.765625 -12.75 C 7.929688 -12.75 8.953125 -12.53125 9.828125 -12.09375 C 10.710938 -11.664062 11.398438 -10.96875 11.890625 -10 C 12.390625 -9.039062 12.640625 -7.769531 12.640625 -6.1875 C 12.640625 -4.601562 12.390625 -3.332031 11.890625 -2.375 C 11.398438 -1.425781 10.710938 -0.734375 9.828125 -0.296875 C 8.953125 0.128906 7.929688 0.34375 6.765625 0.34375 C 5.628906 0.34375 4.617188 0.128906 3.734375 -0.296875 C 2.847656 -0.734375 2.148438 -1.425781 1.640625 -2.375 C 1.140625 -3.332031 0.890625 -4.601562 0.890625 -6.1875 C 0.890625 -7.769531 1.140625 -9.039062 1.640625 -10 C 2.148438 -10.96875 2.847656 -11.664062 3.734375 -12.09375 C 4.617188 -12.53125 5.628906 -12.75 6.765625 -12.75 Z M 6.765625 -12.265625 C 6.128906 -12.265625 5.59375 -11.785156 5.15625 -10.828125 C 4.726562 -9.878906 4.515625 -8.332031 4.515625 -6.1875 C 4.515625 -4.039062 4.726562 -2.492188 5.15625 -1.546875 C 5.59375 -0.609375 6.128906 -0.140625 6.765625 -0.140625 C 7.421875 -0.140625 7.960938 -0.609375 8.390625 -1.546875 C 8.816406 -2.492188 9.03125 -4.039062 9.03125 -6.1875 C 9.03125 -8.332031 8.816406 -9.878906 8.390625 -10.828125 C 7.960938 -11.785156 7.421875 -12.265625 6.765625 -12.265625 Z M 6.765625 -12.265625 "/></g></g></g><g fill="#7a6200" fill-opacity="1"><g transform="translate(851.499831, 314.696578)"><g><path d="M 3.234375 -3.359375 C 3.859375 -3.359375 4.351562 -3.191406 4.71875 -2.859375 C 5.09375 -2.535156 5.28125 -2.085938 5.28125 -1.515625 C 5.28125 -0.929688 5.09375 -0.472656 4.71875 -0.140625 C 4.351562 0.179688 3.859375 0.34375 3.234375 0.34375 C 2.609375 0.34375 2.113281 0.179688 1.75 -0.140625 C 1.382812 -0.472656 1.203125 -0.929688 1.203125 -1.515625 C 1.203125 -2.085938 1.382812 -2.535156 1.75 -2.859375 C 2.113281 -3.191406 2.609375 -3.359375 3.234375 -3.359375 Z M 3.234375 -3.359375 "/></g></g></g><g fill="#7a6200" fill-opacity="1"><g transform="translate(857.979842, 314.696578)"><g><path d="M 10.65625 -12.53125 L 4.65625 -0.359375 L 5.90625 -0.359375 C 6.53125 -0.359375 7.117188 -0.488281 7.671875 -0.75 C 8.222656 -1.019531 8.6875 -1.46875 9.0625 -2.09375 C 9.4375 -2.71875 9.664062 -3.570312 9.75 -4.65625 L 10.25 -4.65625 C 10.25 -3.488281 10.253906 -2.53125 10.265625 -1.78125 C 10.285156 -1.039062 10.3125 -0.414062 10.34375 0.09375 C 9.625 0.0625 8.867188 0.0351562 8.078125 0.015625 C 7.296875 0.00390625 6.515625 0 5.734375 0 C 4.921875 0 4.082031 0.0078125 3.21875 0.03125 C 2.351562 0.0625 1.53125 0.09375 0.75 0.125 L 6.75 -12.046875 L 5.40625 -12.046875 C 4.757812 -12.046875 4.164062 -11.910156 3.625 -11.640625 C 3.09375 -11.378906 2.65625 -10.929688 2.3125 -10.296875 C 1.96875 -9.671875 1.75 -8.820312 1.65625 -7.75 L 1.15625 -7.75 C 1.15625 -8.9375 1.144531 -9.894531 1.125 -10.625 C 1.113281 -11.363281 1.09375 -11.988281 1.0625 -12.5 C 1.789062 -12.46875 2.546875 -12.441406 3.328125 -12.421875 C 4.117188 -12.410156 4.894531 -12.40625 5.65625 -12.40625 C 6.488281 -12.40625 7.332031 -12.414062 8.1875 -12.4375 C 9.050781 -12.46875 9.875 -12.5 10.65625 -12.53125 Z M 10.65625 -12.53125 "/></g></g></g><g fill="#7a6200" fill-opacity="1"><g transform="translate(869.355863, 314.696578)"><g><path d="M 3.890625 0.171875 C 3.171875 0.171875 2.570312 0.0351562 2.09375 -0.234375 C 1.613281 -0.503906 1.257812 -0.867188 1.03125 -1.328125 C 0.8125 -1.785156 0.703125 -2.285156 0.703125 -2.828125 C 0.703125 -3.515625 0.851562 -4.070312 1.15625 -4.5 C 1.46875 -4.9375 1.875 -5.289062 2.375 -5.5625 C 2.875 -5.832031 3.398438 -6.054688 3.953125 -6.234375 C 4.503906 -6.410156 5.03125 -6.582031 5.53125 -6.75 C 6.03125 -6.925781 6.4375 -7.128906 6.75 -7.359375 C 7.0625 -7.585938 7.21875 -7.882812 7.21875 -8.25 L 7.21875 -10.125 C 7.21875 -10.539062 7.148438 -10.910156 7.015625 -11.234375 C 6.878906 -11.566406 6.671875 -11.820312 6.390625 -12 C 6.109375 -12.175781 5.742188 -12.265625 5.296875 -12.265625 C 4.984375 -12.265625 4.664062 -12.21875 4.34375 -12.125 C 4.019531 -12.039062 3.753906 -11.894531 3.546875 -11.6875 C 3.992188 -11.53125 4.34375 -11.285156 4.59375 -10.953125 C 4.84375 -10.628906 4.96875 -10.257812 4.96875 -9.84375 C 4.96875 -9.300781 4.78125 -8.867188 4.40625 -8.546875 C 4.03125 -8.222656 3.585938 -8.0625 3.078125 -8.0625 C 2.492188 -8.0625 2.050781 -8.238281 1.75 -8.59375 C 1.457031 -8.957031 1.3125 -9.394531 1.3125 -9.90625 C 1.3125 -10.375 1.425781 -10.757812 1.65625 -11.0625 C 1.894531 -11.363281 2.222656 -11.648438 2.640625 -11.921875 C 3.085938 -12.179688 3.625 -12.382812 4.25 -12.53125 C 4.882812 -12.675781 5.570312 -12.75 6.3125 -12.75 C 7.050781 -12.75 7.710938 -12.671875 8.296875 -12.515625 C 8.890625 -12.359375 9.390625 -12.082031 9.796875 -11.6875 C 10.160156 -11.320312 10.398438 -10.867188 10.515625 -10.328125 C 10.628906 -9.796875 10.6875 -9.117188 10.6875 -8.296875 L 10.6875 -1.78125 C 10.6875 -1.375 10.722656 -1.09375 10.796875 -0.9375 C 10.878906 -0.789062 11.015625 -0.71875 11.203125 -0.71875 C 11.347656 -0.71875 11.488281 -0.753906 11.625 -0.828125 C 11.757812 -0.910156 11.910156 -1.007812 12.078125 -1.125 L 12.3125 -0.71875 C 11.976562 -0.425781 11.585938 -0.203125 11.140625 -0.046875 C 10.703125 0.0976562 10.210938 0.171875 9.671875 0.171875 C 9.078125 0.171875 8.601562 0.0859375 8.25 -0.078125 C 7.90625 -0.253906 7.65625 -0.484375 7.5 -0.765625 C 7.34375 -1.054688 7.265625 -1.394531 7.265625 -1.78125 C 6.890625 -1.164062 6.425781 -0.6875 5.875 -0.34375 C 5.332031 0 4.671875 0.171875 3.890625 0.171875 Z M 5.59375 -1.375 C 5.914062 -1.375 6.207031 -1.445312 6.46875 -1.59375 C 6.726562 -1.75 6.976562 -2.003906 7.21875 -2.359375 L 7.21875 -7.265625 C 7.082031 -7.023438 6.882812 -6.8125 6.625 -6.625 C 6.363281 -6.4375 6.085938 -6.238281 5.796875 -6.03125 C 5.515625 -5.832031 5.238281 -5.613281 4.96875 -5.375 C 4.707031 -5.132812 4.5 -4.835938 4.34375 -4.484375 C 4.1875 -4.128906 4.109375 -3.707031 4.109375 -3.21875 C 4.109375 -2.59375 4.242188 -2.128906 4.515625 -1.828125 C 4.785156 -1.523438 5.144531 -1.375 5.59375 -1.375 Z M 5.59375 -1.375 "/></g></g></g><g fill="#7a6200" fill-opacity="1"><g transform="translate(583.117135, 451.451711)"><g><path d="M 11.90625 0 L 11.90625 -0.515625 C 12.457031 -0.554688 12.875 -0.628906 13.15625 -0.734375 C 13.4375 -0.835938 13.625 -1.039062 13.71875 -1.34375 C 13.8125 -1.65625 13.859375 -2.125 13.859375 -2.75 L 13.859375 -15.65625 C 13.859375 -16.289062 13.8125 -16.757812 13.71875 -17.0625 C 13.625 -17.375 13.429688 -17.582031 13.140625 -17.6875 C 12.859375 -17.800781 12.445312 -17.867188 11.90625 -17.890625 L 11.90625 -18.40625 C 12.375 -18.382812 12.984375 -18.363281 13.734375 -18.34375 C 14.492188 -18.332031 15.242188 -18.328125 15.984375 -18.328125 C 16.785156 -18.328125 17.535156 -18.332031 18.234375 -18.34375 C 18.941406 -18.363281 19.507812 -18.382812 19.9375 -18.40625 L 19.9375 -17.890625 C 19.382812 -17.867188 18.960938 -17.800781 18.671875 -17.6875 C 18.390625 -17.582031 18.203125 -17.375 18.109375 -17.0625 C 18.023438 -16.757812 17.984375 -16.289062 17.984375 -15.65625 L 17.984375 -2.75 C 17.984375 -2.125 18.03125 -1.65625 18.125 -1.34375 C 18.226562 -1.039062 18.414062 -0.835938 18.6875 -0.734375 C 18.96875 -0.628906 19.382812 -0.554688 19.9375 -0.515625 L 19.9375 0 C 19.507812 -0.03125 18.941406 -0.0507812 18.234375 -0.0625 C 17.535156 -0.0703125 16.785156 -0.078125 15.984375 -0.078125 C 15.242188 -0.078125 14.492188 -0.0703125 13.734375 -0.0625 C 12.984375 -0.0507812 12.375 -0.03125 11.90625 0 Z M 0.890625 0 L 0.890625 -0.515625 C 1.441406 -0.554688 1.851562 -0.628906 2.125 -0.734375 C 2.40625 -0.835938 2.59375 -1.039062 2.6875 -1.34375 C 2.78125 -1.65625 2.828125 -2.125 2.828125 -2.75 L 2.828125 -15.65625 C 2.828125 -16.289062 2.78125 -16.757812 2.6875 -17.0625 C 2.59375 -17.375 2.398438 -17.582031 2.109375 -17.6875 C 1.828125 -17.800781 1.421875 -17.867188 0.890625 -17.890625 L 0.890625 -18.40625 C 1.335938 -18.382812 1.921875 -18.363281 2.640625 -18.34375 C 3.359375 -18.332031 4.140625 -18.328125 4.984375 -18.328125 C 5.710938 -18.328125 6.429688 -18.332031 7.140625 -18.34375 C 7.859375 -18.363281 8.453125 -18.382812 8.921875 -18.40625 L 8.921875 -17.890625 C 8.367188 -17.867188 7.945312 -17.800781 7.65625 -17.6875 C 7.375 -17.582031 7.1875 -17.375 7.09375 -17.0625 C 7.007812 -16.757812 6.96875 -16.289062 6.96875 -15.65625 L 6.96875 -2.75 C 6.96875 -2.125 7.015625 -1.65625 7.109375 -1.34375 C 7.203125 -1.039062 7.390625 -0.835938 7.671875 -0.734375 C 7.953125 -0.628906 8.367188 -0.554688 8.921875 -0.515625 L 8.921875 0 C 8.453125 -0.03125 7.859375 -0.0507812 7.140625 -0.0625 C 6.429688 -0.0703125 5.710938 -0.078125 4.984375 -0.078125 C 4.140625 -0.078125 3.359375 -0.0703125 2.640625 -0.0625 C 1.921875 -0.0507812 1.335938 -0.03125 0.890625 0 Z M 5.28125 -9 L 5.28125 -9.515625 L 15.546875 -9.515625 L 15.546875 -9 Z M 5.28125 -9 "/></g></g></g><g fill="#7a6200" fill-opacity="1"><g transform="translate(603.417007, 451.451711)"><g><path d="M 7.328125 -13.8125 C 8.597656 -13.8125 9.707031 -13.578125 10.65625 -13.109375 C 11.613281 -12.640625 12.359375 -11.882812 12.890625 -10.84375 C 13.429688 -9.800781 13.703125 -8.421875 13.703125 -6.703125 C 13.703125 -4.992188 13.429688 -3.625 12.890625 -2.59375 C 12.359375 -1.5625 11.613281 -0.8125 10.65625 -0.34375 C 9.707031 0.125 8.597656 0.359375 7.328125 0.359375 C 6.097656 0.359375 5 0.125 4.03125 -0.34375 C 3.070312 -0.8125 2.320312 -1.5625 1.78125 -2.59375 C 1.238281 -3.625 0.96875 -4.992188 0.96875 -6.703125 C 0.96875 -8.421875 1.238281 -9.800781 1.78125 -10.84375 C 2.320312 -11.882812 3.070312 -12.640625 4.03125 -13.109375 C 5 -13.578125 6.097656 -13.8125 7.328125 -13.8125 Z M 7.328125 -13.28125 C 6.640625 -13.28125 6.0625 -12.765625 5.59375 -11.734375 C 5.125 -10.703125 4.890625 -9.023438 4.890625 -6.703125 C 4.890625 -4.378906 5.125 -2.707031 5.59375 -1.6875 C 6.0625 -0.664062 6.640625 -0.15625 7.328125 -0.15625 C 8.035156 -0.15625 8.617188 -0.664062 9.078125 -1.6875 C 9.546875 -2.707031 9.78125 -4.378906 9.78125 -6.703125 C 9.78125 -9.023438 9.546875 -10.703125 9.078125 -11.734375 C 8.617188 -12.765625 8.035156 -13.28125 7.328125 -13.28125 Z M 7.328125 -13.28125 "/></g></g></g><g fill="#7a6200" fill-opacity="1"><g transform="translate(618.102603, 451.451711)"><g><path d="M 10.296875 -13.8125 C 11.023438 -13.8125 11.617188 -13.71875 12.078125 -13.53125 C 12.535156 -13.351562 12.894531 -13.109375 13.15625 -12.796875 C 13.4375 -12.460938 13.640625 -12.035156 13.765625 -11.515625 C 13.898438 -10.992188 13.96875 -10.289062 13.96875 -9.40625 L 13.96875 -2.421875 C 13.96875 -1.691406 14.09375 -1.195312 14.34375 -0.9375 C 14.59375 -0.675781 15.019531 -0.546875 15.625 -0.546875 L 15.625 0 C 15.289062 -0.0195312 14.796875 -0.0390625 14.140625 -0.0625 C 13.484375 -0.09375 12.832031 -0.109375 12.1875 -0.109375 C 11.53125 -0.109375 10.882812 -0.09375 10.25 -0.0625 C 9.625 -0.0390625 9.144531 -0.0195312 8.8125 0 L 8.8125 -0.546875 C 9.332031 -0.546875 9.695312 -0.675781 9.90625 -0.9375 C 10.113281 -1.195312 10.21875 -1.691406 10.21875 -2.421875 L 10.21875 -10.5 C 10.21875 -10.9375 10.171875 -11.3125 10.078125 -11.625 C 9.992188 -11.945312 9.835938 -12.195312 9.609375 -12.375 C 9.390625 -12.5625 9.054688 -12.65625 8.609375 -12.65625 C 8.140625 -12.65625 7.707031 -12.523438 7.3125 -12.265625 C 6.925781 -12.003906 6.613281 -11.644531 6.375 -11.1875 C 6.144531 -10.726562 6.03125 -10.210938 6.03125 -9.640625 L 6.03125 -2.421875 C 6.03125 -1.691406 6.140625 -1.195312 6.359375 -0.9375 C 6.578125 -0.675781 6.9375 -0.546875 7.4375 -0.546875 L 7.4375 0 C 7.125 -0.0195312 6.664062 -0.0390625 6.0625 -0.0625 C 5.46875 -0.09375 4.851562 -0.109375 4.21875 -0.109375 C 3.550781 -0.109375 2.867188 -0.09375 2.171875 -0.0625 C 1.484375 -0.0390625 0.96875 -0.0195312 0.625 0 L 0.625 -0.546875 C 1.226562 -0.546875 1.65625 -0.675781 1.90625 -0.9375 C 2.15625 -1.195312 2.28125 -1.691406 2.28125 -2.421875 L 2.28125 -10.609375 C 2.28125 -11.390625 2.164062 -11.960938 1.9375 -12.328125 C 1.707031 -12.703125 1.269531 -12.890625 0.625 -12.890625 L 0.625 -13.4375 C 1.175781 -13.382812 1.710938 -13.359375 2.234375 -13.359375 C 2.960938 -13.359375 3.640625 -13.390625 4.265625 -13.453125 C 4.898438 -13.515625 5.488281 -13.609375 6.03125 -13.734375 L 6.03125 -11.390625 C 6.46875 -12.273438 7.054688 -12.898438 7.796875 -13.265625 C 8.546875 -13.628906 9.378906 -13.8125 10.296875 -13.8125 Z M 10.296875 -13.8125 "/></g></g></g><g fill="#7a6200" fill-opacity="1"><g transform="translate(634.061823, 451.451711)"><g><path d="M 7.328125 -13.8125 C 8.597656 -13.8125 9.707031 -13.578125 10.65625 -13.109375 C 11.613281 -12.640625 12.359375 -11.882812 12.890625 -10.84375 C 13.429688 -9.800781 13.703125 -8.421875 13.703125 -6.703125 C 13.703125 -4.992188 13.429688 -3.625 12.890625 -2.59375 C 12.359375 -1.5625 11.613281 -0.8125 10.65625 -0.34375 C 9.707031 0.125 8.597656 0.359375 7.328125 0.359375 C 6.097656 0.359375 5 0.125 4.03125 -0.34375 C 3.070312 -0.8125 2.320312 -1.5625 1.78125 -2.59375 C 1.238281 -3.625 0.96875 -4.992188 0.96875 -6.703125 C 0.96875 -8.421875 1.238281 -9.800781 1.78125 -10.84375 C 2.320312 -11.882812 3.070312 -12.640625 4.03125 -13.109375 C 5 -13.578125 6.097656 -13.8125 7.328125 -13.8125 Z M 7.328125 -13.28125 C 6.640625 -13.28125 6.0625 -12.765625 5.59375 -11.734375 C 5.125 -10.703125 4.890625 -9.023438 4.890625 -6.703125 C 4.890625 -4.378906 5.125 -2.707031 5.59375 -1.6875 C 6.0625 -0.664062 6.640625 -0.15625 7.328125 -0.15625 C 8.035156 -0.15625 8.617188 -0.664062 9.078125 -1.6875 C 9.546875 -2.707031 9.78125 -4.378906 9.78125 -6.703125 C 9.78125 -9.023438 9.546875 -10.703125 9.078125 -11.734375 C 8.617188 -12.765625 8.035156 -13.28125 7.328125 -13.28125 Z M 7.328125 -13.28125 "/></g></g></g><g fill="#7a6200" fill-opacity="1"><g transform="translate(648.747418, 451.451711)"><g><path d="M 13.578125 -13.734375 L 13.578125 -2.828125 C 13.578125 -2.046875 13.695312 -1.46875 13.9375 -1.09375 C 14.175781 -0.726562 14.609375 -0.546875 15.234375 -0.546875 L 15.234375 0 C 14.703125 -0.0507812 14.164062 -0.078125 13.625 -0.078125 C 12.894531 -0.078125 12.21875 -0.0507812 11.59375 0 C 10.96875 0.0507812 10.378906 0.144531 9.828125 0.28125 L 9.828125 -2.046875 C 9.410156 -1.179688 8.832031 -0.5625 8.09375 -0.1875 C 7.363281 0.175781 6.546875 0.359375 5.640625 0.359375 C 4.910156 0.359375 4.320312 0.265625 3.875 0.078125 C 3.425781 -0.109375 3.070312 -0.351562 2.8125 -0.65625 C 2.507812 -0.976562 2.296875 -1.40625 2.171875 -1.9375 C 2.054688 -2.476562 2 -3.175781 2 -4.03125 L 2 -10.609375 C 2 -11.390625 1.878906 -11.960938 1.640625 -12.328125 C 1.410156 -12.703125 0.976562 -12.890625 0.34375 -12.890625 L 0.34375 -13.4375 C 0.894531 -13.382812 1.429688 -13.359375 1.953125 -13.359375 C 2.679688 -13.359375 3.359375 -13.390625 3.984375 -13.453125 C 4.617188 -13.515625 5.207031 -13.609375 5.75 -13.734375 L 5.75 -2.96875 C 5.75 -2.53125 5.785156 -2.144531 5.859375 -1.8125 C 5.941406 -1.488281 6.09375 -1.234375 6.3125 -1.046875 C 6.539062 -0.867188 6.875 -0.78125 7.3125 -0.78125 C 7.78125 -0.78125 8.195312 -0.910156 8.5625 -1.171875 C 8.9375 -1.429688 9.238281 -1.789062 9.46875 -2.25 C 9.707031 -2.707031 9.828125 -3.222656 9.828125 -3.796875 L 9.828125 -10.609375 C 9.828125 -11.390625 9.707031 -11.960938 9.46875 -12.328125 C 9.238281 -12.703125 8.800781 -12.890625 8.15625 -12.890625 L 8.15625 -13.4375 C 8.71875 -13.382812 9.257812 -13.359375 9.78125 -13.359375 C 10.507812 -13.359375 11.1875 -13.390625 11.8125 -13.453125 C 12.445312 -13.515625 13.035156 -13.609375 13.578125 -13.734375 Z M 13.578125 -13.734375 "/></g></g></g><g fill="#7a6200" fill-opacity="1"><g transform="translate(664.498699, 451.451711)"><g><path d="M 9.5625 -13.8125 C 10.125 -13.8125 10.578125 -13.691406 10.921875 -13.453125 C 11.265625 -13.222656 11.519531 -12.925781 11.6875 -12.5625 C 11.851562 -12.195312 11.9375 -11.8125 11.9375 -11.40625 C 11.9375 -10.769531 11.75 -10.25 11.375 -9.84375 C 11 -9.4375 10.507812 -9.234375 9.90625 -9.234375 C 9.300781 -9.234375 8.828125 -9.382812 8.484375 -9.6875 C 8.148438 -9.988281 7.984375 -10.390625 7.984375 -10.890625 C 7.984375 -11.378906 8.085938 -11.78125 8.296875 -12.09375 C 8.515625 -12.414062 8.789062 -12.691406 9.125 -12.921875 C 8.882812 -12.992188 8.640625 -12.984375 8.390625 -12.890625 C 8.066406 -12.835938 7.753906 -12.703125 7.453125 -12.484375 C 7.160156 -12.273438 6.910156 -12.007812 6.703125 -11.6875 C 6.492188 -11.363281 6.328125 -11.015625 6.203125 -10.640625 C 6.085938 -10.273438 6.03125 -9.914062 6.03125 -9.5625 L 6.03125 -2.671875 C 6.03125 -1.847656 6.234375 -1.285156 6.640625 -0.984375 C 7.046875 -0.691406 7.65625 -0.546875 8.46875 -0.546875 L 8.46875 0 C 8.070312 -0.0195312 7.492188 -0.0390625 6.734375 -0.0625 C 5.972656 -0.09375 5.175781 -0.109375 4.34375 -0.109375 C 3.644531 -0.109375 2.941406 -0.09375 2.234375 -0.0625 C 1.523438 -0.0390625 0.988281 -0.0195312 0.625 0 L 0.625 -0.546875 C 1.226562 -0.546875 1.65625 -0.675781 1.90625 -0.9375 C 2.15625 -1.195312 2.28125 -1.691406 2.28125 -2.421875 L 2.28125 -10.609375 C 2.28125 -11.390625 2.164062 -11.960938 1.9375 -12.328125 C 1.707031 -12.703125 1.269531 -12.890625 0.625 -12.890625 L 0.625 -13.4375 C 1.175781 -13.382812 1.710938 -13.359375 2.234375 -13.359375 C 2.960938 -13.359375 3.640625 -13.390625 4.265625 -13.453125 C 4.898438 -13.515625 5.488281 -13.609375 6.03125 -13.734375 L 6.03125 -11.3125 C 6.238281 -11.78125 6.515625 -12.203125 6.859375 -12.578125 C 7.210938 -12.960938 7.613281 -13.265625 8.0625 -13.484375 C 8.507812 -13.703125 9.007812 -13.8125 9.5625 -13.8125 Z M 9.5625 -13.8125 "/></g></g></g><g fill="#7a6200" fill-opacity="1"><g transform="translate(676.637058, 451.451711)"><g><path d="M 4.015625 -20.15625 C 4.742188 -20.15625 5.316406 -19.972656 5.734375 -19.609375 C 6.160156 -19.253906 6.375 -18.765625 6.375 -18.140625 C 6.375 -17.523438 6.160156 -17.035156 5.734375 -16.671875 C 5.316406 -16.316406 4.742188 -16.140625 4.015625 -16.140625 C 3.285156 -16.140625 2.707031 -16.316406 2.28125 -16.671875 C 1.851562 -17.035156 1.640625 -17.523438 1.640625 -18.140625 C 1.640625 -18.765625 1.851562 -19.253906 2.28125 -19.609375 C 2.707031 -19.972656 3.285156 -20.15625 4.015625 -20.15625 Z M 6.03125 -13.734375 L 6.03125 -2.421875 C 6.03125 -1.691406 6.15625 -1.195312 6.40625 -0.9375 C 6.65625 -0.675781 7.085938 -0.546875 7.703125 -0.546875 L 7.703125 0 C 7.390625 -0.0195312 6.898438 -0.0390625 6.234375 -0.0625 C 5.578125 -0.09375 4.910156 -0.109375 4.234375 -0.109375 C 3.554688 -0.109375 2.867188 -0.09375 2.171875 -0.0625 C 1.484375 -0.0390625 0.96875 -0.0195312 0.625 0 L 0.625 -0.546875 C 1.226562 -0.546875 1.65625 -0.675781 1.90625 -0.9375 C 2.15625 -1.195312 2.28125 -1.691406 2.28125 -2.421875 L 2.28125 -10.609375 C 2.28125 -11.390625 2.164062 -11.960938 1.9375 -12.328125 C 1.707031 -12.703125 1.269531 -12.890625 0.625 -12.890625 L 0.625 -13.4375 C 1.175781 -13.382812 1.710938 -13.359375 2.234375 -13.359375 C 2.960938 -13.359375 3.640625 -13.390625 4.265625 -13.453125 C 4.898438 -13.515625 5.488281 -13.609375 6.03125 -13.734375 Z M 6.03125 -13.734375 "/></g></g></g><g fill="#7a6200" fill-opacity="1"><g transform="translate(684.824607, 451.451711)"><g><path d="M 10.296875 -13.8125 C 11.023438 -13.8125 11.617188 -13.71875 12.078125 -13.53125 C 12.535156 -13.351562 12.894531 -13.109375 13.15625 -12.796875 C 13.4375 -12.460938 13.640625 -12.035156 13.765625 -11.515625 C 13.898438 -10.992188 13.96875 -10.289062 13.96875 -9.40625 L 13.96875 -2.421875 C 13.96875 -1.691406 14.09375 -1.195312 14.34375 -0.9375 C 14.59375 -0.675781 15.019531 -0.546875 15.625 -0.546875 L 15.625 0 C 15.289062 -0.0195312 14.796875 -0.0390625 14.140625 -0.0625 C 13.484375 -0.09375 12.832031 -0.109375 12.1875 -0.109375 C 11.53125 -0.109375 10.882812 -0.09375 10.25 -0.0625 C 9.625 -0.0390625 9.144531 -0.0195312 8.8125 0 L 8.8125 -0.546875 C 9.332031 -0.546875 9.695312 -0.675781 9.90625 -0.9375 C 10.113281 -1.195312 10.21875 -1.691406 10.21875 -2.421875 L 10.21875 -10.5 C 10.21875 -10.9375 10.171875 -11.3125 10.078125 -11.625 C 9.992188 -11.945312 9.835938 -12.195312 9.609375 -12.375 C 9.390625 -12.5625 9.054688 -12.65625 8.609375 -12.65625 C 8.140625 -12.65625 7.707031 -12.523438 7.3125 -12.265625 C 6.925781 -12.003906 6.613281 -11.644531 6.375 -11.1875 C 6.144531 -10.726562 6.03125 -10.210938 6.03125 -9.640625 L 6.03125 -2.421875 C 6.03125 -1.691406 6.140625 -1.195312 6.359375 -0.9375 C 6.578125 -0.675781 6.9375 -0.546875 7.4375 -0.546875 L 7.4375 0 C 7.125 -0.0195312 6.664062 -0.0390625 6.0625 -0.0625 C 5.46875 -0.09375 4.851562 -0.109375 4.21875 -0.109375 C 3.550781 -0.109375 2.867188 -0.09375 2.171875 -0.0625 C 1.484375 -0.0390625 0.96875 -0.0195312 0.625 0 L 0.625 -0.546875 C 1.226562 -0.546875 1.65625 -0.675781 1.90625 -0.9375 C 2.15625 -1.195312 2.28125 -1.691406 2.28125 -2.421875 L 2.28125 -10.609375 C 2.28125 -11.390625 2.164062 -11.960938 1.9375 -12.328125 C 1.707031 -12.703125 1.269531 -12.890625 0.625 -12.890625 L 0.625 -13.4375 C 1.175781 -13.382812 1.710938 -13.359375 2.234375 -13.359375 C 2.960938 -13.359375 3.640625 -13.390625 4.265625 -13.453125 C 4.898438 -13.515625 5.488281 -13.609375 6.03125 -13.734375 L 6.03125 -11.390625 C 6.46875 -12.273438 7.054688 -12.898438 7.796875 -13.265625 C 8.546875 -13.628906 9.378906 -13.8125 10.296875 -13.8125 Z M 10.296875 -13.8125 "/></g></g></g><g fill="#7a6200" fill-opacity="1"><g transform="translate(700.601866, 451.451711)"><g><path d="M 5.671875 4.890625 C 4.597656 4.890625 3.640625 4.796875 2.796875 4.609375 C 1.953125 4.429688 1.289062 4.15625 0.8125 3.78125 C 0.34375 3.40625 0.109375 2.953125 0.109375 2.421875 C 0.109375 1.878906 0.347656 1.394531 0.828125 0.96875 C 1.316406 0.550781 2.035156 0.21875 2.984375 -0.03125 L 3.21875 0.390625 C 2.894531 0.648438 2.65625 0.929688 2.5 1.234375 C 2.351562 1.535156 2.28125 1.851562 2.28125 2.1875 C 2.28125 2.914062 2.613281 3.472656 3.28125 3.859375 C 3.957031 4.253906 4.863281 4.453125 6 4.453125 C 6.78125 4.453125 7.476562 4.347656 8.09375 4.140625 C 8.707031 3.929688 9.191406 3.617188 9.546875 3.203125 C 9.910156 2.785156 10.09375 2.269531 10.09375 1.65625 C 10.09375 1.144531 9.898438 0.707031 9.515625 0.34375 C 9.128906 -0.0078125 8.367188 -0.1875 7.234375 -0.1875 L 5.609375 -0.1875 C 4.898438 -0.1875 4.28125 -0.265625 3.75 -0.421875 C 3.226562 -0.578125 2.816406 -0.820312 2.515625 -1.15625 C 2.222656 -1.488281 2.078125 -1.914062 2.078125 -2.4375 C 2.078125 -3.164062 2.363281 -3.804688 2.9375 -4.359375 C 3.507812 -4.921875 4.359375 -5.441406 5.484375 -5.921875 L 5.75 -5.71875 C 5.414062 -5.507812 5.101562 -5.285156 4.8125 -5.046875 C 4.53125 -4.816406 4.390625 -4.519531 4.390625 -4.15625 C 4.390625 -3.601562 4.738281 -3.328125 5.4375 -3.328125 L 8.265625 -3.328125 C 9.222656 -3.328125 10.078125 -3.210938 10.828125 -2.984375 C 11.578125 -2.765625 12.171875 -2.398438 12.609375 -1.890625 C 13.054688 -1.378906 13.28125 -0.710938 13.28125 0.109375 C 13.28125 0.953125 13.003906 1.738281 12.453125 2.46875 C 11.910156 3.195312 11.078125 3.78125 9.953125 4.21875 C 8.828125 4.664062 7.398438 4.890625 5.671875 4.890625 Z M 5.921875 -5.53125 C 4.941406 -5.53125 4.0625 -5.675781 3.28125 -5.96875 C 2.5 -6.269531 1.878906 -6.722656 1.421875 -7.328125 C 0.972656 -7.929688 0.75 -8.710938 0.75 -9.671875 C 0.75 -10.628906 0.972656 -11.414062 1.421875 -12.03125 C 1.878906 -12.644531 2.5 -13.09375 3.28125 -13.375 C 4.0625 -13.664062 4.941406 -13.8125 5.921875 -13.8125 C 6.910156 -13.8125 7.796875 -13.664062 8.578125 -13.375 C 9.359375 -13.09375 9.972656 -12.644531 10.421875 -12.03125 C 10.878906 -11.414062 11.109375 -10.628906 11.109375 -9.671875 C 11.109375 -8.710938 10.878906 -7.929688 10.421875 -7.328125 C 9.972656 -6.722656 9.359375 -6.269531 8.578125 -5.96875 C 7.796875 -5.675781 6.910156 -5.53125 5.921875 -5.53125 Z M 5.921875 -6 C 6.390625 -6 6.753906 -6.265625 7.015625 -6.796875 C 7.273438 -7.328125 7.40625 -8.285156 7.40625 -9.671875 C 7.40625 -11.054688 7.273438 -12.015625 7.015625 -12.546875 C 6.753906 -13.078125 6.390625 -13.34375 5.921875 -13.34375 C 5.472656 -13.34375 5.113281 -13.078125 4.84375 -12.546875 C 4.582031 -12.015625 4.453125 -11.054688 4.453125 -9.671875 C 4.453125 -8.285156 4.582031 -7.328125 4.84375 -6.796875 C 5.113281 -6.265625 5.472656 -6 5.921875 -6 Z M 9.984375 -11.5625 L 9.46875 -11.75 C 9.726562 -12.425781 10.144531 -12.988281 10.71875 -13.4375 C 11.300781 -13.894531 11.929688 -14.125 12.609375 -14.125 C 13.160156 -14.125 13.578125 -13.96875 13.859375 -13.65625 C 14.148438 -13.351562 14.296875 -12.960938 14.296875 -12.484375 C 14.296875 -11.960938 14.15625 -11.578125 13.875 -11.328125 C 13.601562 -11.078125 13.296875 -10.953125 12.953125 -10.953125 C 12.648438 -10.953125 12.375 -11.050781 12.125 -11.25 C 11.875 -11.457031 11.726562 -11.773438 11.6875 -12.203125 C 11.65625 -12.628906 11.804688 -13.179688 12.140625 -13.859375 L 12.328125 -13.703125 C 11.671875 -13.460938 11.175781 -13.179688 10.84375 -12.859375 C 10.507812 -12.535156 10.222656 -12.101562 9.984375 -11.5625 Z M 9.984375 -11.5625 "/></g></g></g><g fill="#7a6200" fill-opacity="1"><g transform="translate(714.975564, 451.451711)"><g/></g></g><g fill="#7a6200" fill-opacity="1"><g transform="translate(721.031754, 451.451711)"><g><path d="M 9.078125 -18.40625 L 9.078125 -17.890625 C 8.484375 -17.867188 8.035156 -17.800781 7.734375 -17.6875 C 7.429688 -17.582031 7.226562 -17.375 7.125 -17.0625 C 7.019531 -16.757812 6.96875 -16.289062 6.96875 -15.65625 L 6.96875 -2.4375 C 6.96875 -1.90625 7.003906 -1.507812 7.078125 -1.25 C 7.160156 -0.988281 7.316406 -0.8125 7.546875 -0.71875 C 7.785156 -0.632812 8.140625 -0.59375 8.609375 -0.59375 L 9.875 -0.59375 C 10.46875 -0.59375 11.023438 -0.734375 11.546875 -1.015625 C 12.066406 -1.296875 12.535156 -1.691406 12.953125 -2.203125 C 13.367188 -2.710938 13.710938 -3.320312 13.984375 -4.03125 C 14.265625 -4.738281 14.472656 -5.523438 14.609375 -6.390625 L 15.203125 -6.390625 C 15.148438 -5.804688 15.125 -5.046875 15.125 -4.109375 C 15.125 -3.710938 15.132812 -3.128906 15.15625 -2.359375 C 15.175781 -1.597656 15.226562 -0.8125 15.3125 0 C 14.425781 -0.03125 13.425781 -0.0507812 12.3125 -0.0625 C 11.207031 -0.0703125 10.222656 -0.078125 9.359375 -0.078125 C 8.921875 -0.078125 8.363281 -0.078125 7.6875 -0.078125 C 7.019531 -0.078125 6.296875 -0.0703125 5.515625 -0.0625 C 4.734375 -0.0507812 3.941406 -0.0390625 3.140625 -0.03125 C 2.347656 -0.03125 1.597656 -0.0195312 0.890625 0 L 0.890625 -0.515625 C 1.441406 -0.554688 1.851562 -0.628906 2.125 -0.734375 C 2.40625 -0.835938 2.59375 -1.039062 2.6875 -1.34375 C 2.78125 -1.65625 2.828125 -2.125 2.828125 -2.75 L 2.828125 -15.65625 C 2.828125 -16.289062 2.78125 -16.757812 2.6875 -17.0625 C 2.59375 -17.375 2.398438 -17.582031 2.109375 -17.6875 C 1.828125 -17.800781 1.421875 -17.867188 0.890625 -17.890625 L 0.890625 -18.40625 C 1.316406 -18.382812 1.898438 -18.363281 2.640625 -18.34375 C 3.378906 -18.332031 4.160156 -18.328125 4.984375 -18.328125 C 5.753906 -18.328125 6.503906 -18.332031 7.234375 -18.34375 C 7.972656 -18.363281 8.585938 -18.382812 9.078125 -18.40625 Z M 9.078125 -18.40625 "/></g></g></g><g fill="#7a6200" fill-opacity="1"><g transform="translate(736.912995, 451.451711)"><g><path d="M 4.015625 -20.15625 C 4.742188 -20.15625 5.316406 -19.972656 5.734375 -19.609375 C 6.160156 -19.253906 6.375 -18.765625 6.375 -18.140625 C 6.375 -17.523438 6.160156 -17.035156 5.734375 -16.671875 C 5.316406 -16.316406 4.742188 -16.140625 4.015625 -16.140625 C 3.285156 -16.140625 2.707031 -16.316406 2.28125 -16.671875 C 1.851562 -17.035156 1.640625 -17.523438 1.640625 -18.140625 C 1.640625 -18.765625 1.851562 -19.253906 2.28125 -19.609375 C 2.707031 -19.972656 3.285156 -20.15625 4.015625 -20.15625 Z M 6.03125 -13.734375 L 6.03125 -2.421875 C 6.03125 -1.691406 6.15625 -1.195312 6.40625 -0.9375 C 6.65625 -0.675781 7.085938 -0.546875 7.703125 -0.546875 L 7.703125 0 C 7.390625 -0.0195312 6.898438 -0.0390625 6.234375 -0.0625 C 5.578125 -0.09375 4.910156 -0.109375 4.234375 -0.109375 C 3.554688 -0.109375 2.867188 -0.09375 2.171875 -0.0625 C 1.484375 -0.0390625 0.96875 -0.0195312 0.625 0 L 0.625 -0.546875 C 1.226562 -0.546875 1.65625 -0.675781 1.90625 -0.9375 C 2.15625 -1.195312 2.28125 -1.691406 2.28125 -2.421875 L 2.28125 -10.609375 C 2.28125 -11.390625 2.164062 -11.960938 1.9375 -12.328125 C 1.707031 -12.703125 1.269531 -12.890625 0.625 -12.890625 L 0.625 -13.4375 C 1.175781 -13.382812 1.710938 -13.359375 2.234375 -13.359375 C 2.960938 -13.359375 3.640625 -13.390625 4.265625 -13.453125 C 4.898438 -13.515625 5.488281 -13.609375 6.03125 -13.734375 Z M 6.03125 -13.734375 "/></g></g></g><g fill="#7a6200" fill-opacity="1"><g transform="translate(744.996563, 451.451711)"><g><path d="M 13.1875 -13.4375 L 13.1875 -12.921875 C 12.851562 -12.835938 12.535156 -12.632812 12.234375 -12.3125 C 11.941406 -11.988281 11.660156 -11.445312 11.390625 -10.6875 L 7.59375 0.046875 C 7.3125 0.0351562 7.023438 0.03125 6.734375 0.03125 C 6.453125 0.03125 6.175781 0.0351562 5.90625 0.046875 L 1.28125 -11.4375 C 1 -12.113281 0.722656 -12.523438 0.453125 -12.671875 C 0.179688 -12.816406 -0.046875 -12.890625 -0.234375 -12.890625 L -0.234375 -13.4375 C 0.316406 -13.40625 0.890625 -13.375 1.484375 -13.34375 C 2.085938 -13.320312 2.742188 -13.3125 3.453125 -13.3125 C 3.992188 -13.3125 4.5625 -13.320312 5.15625 -13.34375 C 5.757812 -13.375 6.320312 -13.40625 6.84375 -13.4375 L 6.84375 -12.890625 C 6.476562 -12.890625 6.148438 -12.875 5.859375 -12.84375 C 5.578125 -12.8125 5.382812 -12.695312 5.28125 -12.5 C 5.175781 -12.3125 5.191406 -11.972656 5.328125 -11.484375 L 8.375 -3.4375 L 8.109375 -3.0625 L 10.171875 -8.765625 C 10.492188 -9.703125 10.628906 -10.46875 10.578125 -11.0625 C 10.523438 -11.65625 10.332031 -12.101562 10 -12.40625 C 9.675781 -12.71875 9.238281 -12.890625 8.6875 -12.921875 L 8.6875 -13.4375 C 8.945312 -13.425781 9.226562 -13.414062 9.53125 -13.40625 C 9.832031 -13.394531 10.125 -13.382812 10.40625 -13.375 C 10.695312 -13.363281 10.957031 -13.359375 11.1875 -13.359375 C 11.53125 -13.359375 11.890625 -13.367188 12.265625 -13.390625 C 12.648438 -13.410156 12.957031 -13.425781 13.1875 -13.4375 Z M 13.1875 -13.4375 "/></g></g></g><g fill="#7a6200" fill-opacity="1"><g transform="translate(757.810683, 451.451711)"><g><path d="M 7.328125 -13.8125 C 8.859375 -13.8125 10.054688 -13.359375 10.921875 -12.453125 C 11.785156 -11.554688 12.21875 -10.082031 12.21875 -8.03125 L 3.671875 -8.03125 L 3.609375 -8.53125 L 8.9375 -8.53125 C 8.957031 -9.375 8.90625 -10.15625 8.78125 -10.875 C 8.664062 -11.59375 8.476562 -12.171875 8.21875 -12.609375 C 7.957031 -13.046875 7.609375 -13.265625 7.171875 -13.265625 C 6.566406 -13.265625 6.050781 -12.878906 5.625 -12.109375 C 5.195312 -11.347656 4.941406 -10.082031 4.859375 -8.3125 L 4.9375 -8.15625 C 4.914062 -7.957031 4.898438 -7.742188 4.890625 -7.515625 C 4.890625 -7.285156 4.890625 -7.050781 4.890625 -6.8125 C 4.890625 -5.613281 5.054688 -4.640625 5.390625 -3.890625 C 5.734375 -3.148438 6.164062 -2.609375 6.6875 -2.265625 C 7.207031 -1.929688 7.734375 -1.765625 8.265625 -1.765625 C 8.628906 -1.765625 9.003906 -1.820312 9.390625 -1.9375 C 9.785156 -2.050781 10.179688 -2.257812 10.578125 -2.5625 C 10.984375 -2.863281 11.359375 -3.289062 11.703125 -3.84375 L 12.171875 -3.6875 C 11.960938 -3.03125 11.628906 -2.390625 11.171875 -1.765625 C 10.722656 -1.140625 10.148438 -0.628906 9.453125 -0.234375 C 8.765625 0.160156 7.9375 0.359375 6.96875 0.359375 C 5.789062 0.359375 4.75 0.109375 3.84375 -0.390625 C 2.945312 -0.890625 2.242188 -1.648438 1.734375 -2.671875 C 1.222656 -3.703125 0.96875 -5.003906 0.96875 -6.578125 C 0.96875 -8.191406 1.238281 -9.535156 1.78125 -10.609375 C 2.320312 -11.679688 3.070312 -12.484375 4.03125 -13.015625 C 5 -13.546875 6.097656 -13.8125 7.328125 -13.8125 Z M 7.328125 -13.8125 "/></g></g></g><g fill="#7a6200" fill-opacity="1"><g transform="translate(770.910757, 451.451711)"><g><path d="M 5.765625 -13.8125 C 6.492188 -13.8125 7.128906 -13.71875 7.671875 -13.53125 C 8.222656 -13.351562 8.617188 -13.175781 8.859375 -13 C 9.453125 -12.601562 9.816406 -12.863281 9.953125 -13.78125 L 10.5 -13.78125 C 10.46875 -13.289062 10.441406 -12.695312 10.421875 -12 C 10.410156 -11.300781 10.40625 -10.367188 10.40625 -9.203125 L 9.859375 -9.203125 C 9.765625 -9.847656 9.597656 -10.476562 9.359375 -11.09375 C 9.117188 -11.71875 8.769531 -12.226562 8.3125 -12.625 C 7.851562 -13.03125 7.257812 -13.234375 6.53125 -13.234375 C 6.019531 -13.234375 5.59375 -13.085938 5.25 -12.796875 C 4.90625 -12.515625 4.734375 -12.101562 4.734375 -11.5625 C 4.734375 -11.050781 4.890625 -10.597656 5.203125 -10.203125 C 5.515625 -9.816406 5.914062 -9.441406 6.40625 -9.078125 C 6.90625 -8.722656 7.421875 -8.347656 7.953125 -7.953125 C 8.523438 -7.523438 9.046875 -7.097656 9.515625 -6.671875 C 9.984375 -6.242188 10.351562 -5.78125 10.625 -5.28125 C 10.90625 -4.78125 11.046875 -4.179688 11.046875 -3.484375 C 11.046875 -2.703125 10.820312 -2.019531 10.375 -1.4375 C 9.925781 -0.863281 9.332031 -0.421875 8.59375 -0.109375 C 7.851562 0.203125 7.035156 0.359375 6.140625 0.359375 C 5.617188 0.359375 5.15625 0.304688 4.75 0.203125 C 4.34375 0.0976562 3.988281 -0.03125 3.6875 -0.1875 C 3.46875 -0.289062 3.253906 -0.390625 3.046875 -0.484375 C 2.847656 -0.578125 2.664062 -0.660156 2.5 -0.734375 C 2.320312 -0.785156 2.164062 -0.722656 2.03125 -0.546875 C 1.90625 -0.367188 1.804688 -0.125 1.734375 0.1875 L 1.203125 0.1875 C 1.234375 -0.375 1.253906 -1.050781 1.265625 -1.84375 C 1.285156 -2.644531 1.296875 -3.703125 1.296875 -5.015625 L 1.84375 -5.015625 C 1.945312 -4.078125 2.132812 -3.25 2.40625 -2.53125 C 2.6875 -1.8125 3.066406 -1.25 3.546875 -0.84375 C 4.023438 -0.4375 4.628906 -0.234375 5.359375 -0.234375 C 5.648438 -0.234375 5.929688 -0.289062 6.203125 -0.40625 C 6.484375 -0.53125 6.710938 -0.734375 6.890625 -1.015625 C 7.078125 -1.296875 7.171875 -1.648438 7.171875 -2.078125 C 7.171875 -2.835938 6.921875 -3.46875 6.421875 -3.96875 C 5.929688 -4.476562 5.304688 -5.023438 4.546875 -5.609375 C 3.992188 -6.066406 3.46875 -6.515625 2.96875 -6.953125 C 2.476562 -7.398438 2.078125 -7.882812 1.765625 -8.40625 C 1.453125 -8.9375 1.296875 -9.539062 1.296875 -10.21875 C 1.296875 -11 1.503906 -11.65625 1.921875 -12.1875 C 2.335938 -12.726562 2.890625 -13.132812 3.578125 -13.40625 C 4.265625 -13.675781 4.992188 -13.8125 5.765625 -13.8125 Z M 5.765625 -13.8125 "/></g></g></g><g fill="#7a6200" fill-opacity="1"><g transform="translate(782.919157, 451.451711)"><g><path d="M 3.40625 -3.640625 C 3.84375 -3.640625 4.210938 -3.5625 4.515625 -3.40625 C 4.828125 -3.25 5.070312 -3.023438 5.25 -2.734375 C 5.4375 -2.484375 5.578125 -2.160156 5.671875 -1.765625 C 5.773438 -1.367188 5.828125 -0.972656 5.828125 -0.578125 C 5.828125 0.296875 5.601562 1.097656 5.15625 1.828125 C 4.71875 2.566406 4.03125 3.15625 3.09375 3.59375 L 2.859375 3.125 C 3.347656 2.914062 3.78125 2.59375 4.15625 2.15625 C 4.539062 1.726562 4.769531 1.285156 4.84375 0.828125 C 4.925781 0.453125 4.925781 0.0859375 4.84375 -0.265625 C 4.457031 0.148438 3.953125 0.359375 3.328125 0.359375 C 2.722656 0.359375 2.226562 0.179688 1.84375 -0.171875 C 1.46875 -0.523438 1.28125 -1.015625 1.28125 -1.640625 C 1.28125 -2.242188 1.484375 -2.726562 1.890625 -3.09375 C 2.296875 -3.457031 2.800781 -3.640625 3.40625 -3.640625 Z M 3.40625 -3.640625 "/></g></g></g><g fill="#7a6200" fill-opacity="1"><g transform="translate(789.963041, 451.451711)"><g/></g></g><g fill="#7a6200" fill-opacity="1"><g transform="translate(796.019254, 451.451711)"><g><path d="M 8.921875 -18.40625 C 12.335938 -18.40625 14.875 -17.628906 16.53125 -16.078125 C 18.195312 -14.523438 19.03125 -12.300781 19.03125 -9.40625 C 19.03125 -7.519531 18.625 -5.867188 17.8125 -4.453125 C 17 -3.046875 15.816406 -1.953125 14.265625 -1.171875 C 12.710938 -0.390625 10.851562 0 8.6875 0 C 8.40625 0 8.039062 -0.00390625 7.59375 -0.015625 C 7.144531 -0.0351562 6.675781 -0.0507812 6.1875 -0.0625 C 5.695312 -0.0703125 5.265625 -0.078125 4.890625 -0.078125 C 4.128906 -0.078125 3.378906 -0.0703125 2.640625 -0.0625 C 1.898438 -0.0507812 1.316406 -0.03125 0.890625 0 L 0.890625 -0.515625 C 1.441406 -0.554688 1.851562 -0.628906 2.125 -0.734375 C 2.40625 -0.835938 2.59375 -1.039062 2.6875 -1.34375 C 2.78125 -1.65625 2.828125 -2.125 2.828125 -2.75 L 2.828125 -15.65625 C 2.828125 -16.289062 2.78125 -16.757812 2.6875 -17.0625 C 2.59375 -17.375 2.398438 -17.582031 2.109375 -17.6875 C 1.828125 -17.800781 1.421875 -17.867188 0.890625 -17.890625 L 0.890625 -18.40625 C 1.316406 -18.382812 1.898438 -18.359375 2.640625 -18.328125 C 3.378906 -18.304688 4.113281 -18.304688 4.84375 -18.328125 C 5.457031 -18.347656 6.160156 -18.363281 6.953125 -18.375 C 7.742188 -18.394531 8.398438 -18.40625 8.921875 -18.40625 Z M 8.890625 -17.9375 C 8.097656 -17.9375 7.578125 -17.789062 7.328125 -17.5 C 7.085938 -17.207031 6.96875 -16.609375 6.96875 -15.703125 L 6.96875 -2.703125 C 6.96875 -1.804688 7.09375 -1.207031 7.34375 -0.90625 C 7.59375 -0.613281 8.117188 -0.46875 8.921875 -0.46875 C 10.378906 -0.46875 11.523438 -0.804688 12.359375 -1.484375 C 13.203125 -2.171875 13.804688 -3.171875 14.171875 -4.484375 C 14.535156 -5.804688 14.71875 -7.414062 14.71875 -9.3125 C 14.71875 -11.25 14.519531 -12.851562 14.125 -14.125 C 13.738281 -15.40625 13.117188 -16.359375 12.265625 -16.984375 C 11.421875 -17.617188 10.296875 -17.9375 8.890625 -17.9375 Z M 8.890625 -17.9375 "/></g></g></g><g fill="#7a6200" fill-opacity="1"><g transform="translate(816.18919, 451.451711)"><g><path d="M 4.015625 -20.15625 C 4.742188 -20.15625 5.316406 -19.972656 5.734375 -19.609375 C 6.160156 -19.253906 6.375 -18.765625 6.375 -18.140625 C 6.375 -17.523438 6.160156 -17.035156 5.734375 -16.671875 C 5.316406 -16.316406 4.742188 -16.140625 4.015625 -16.140625 C 3.285156 -16.140625 2.707031 -16.316406 2.28125 -16.671875 C 1.851562 -17.035156 1.640625 -17.523438 1.640625 -18.140625 C 1.640625 -18.765625 1.851562 -19.253906 2.28125 -19.609375 C 2.707031 -19.972656 3.285156 -20.15625 4.015625 -20.15625 Z M 6.03125 -13.734375 L 6.03125 -2.421875 C 6.03125 -1.691406 6.15625 -1.195312 6.40625 -0.9375 C 6.65625 -0.675781 7.085938 -0.546875 7.703125 -0.546875 L 7.703125 0 C 7.390625 -0.0195312 6.898438 -0.0390625 6.234375 -0.0625 C 5.578125 -0.09375 4.910156 -0.109375 4.234375 -0.109375 C 3.554688 -0.109375 2.867188 -0.09375 2.171875 -0.0625 C 1.484375 -0.0390625 0.96875 -0.0195312 0.625 0 L 0.625 -0.546875 C 1.226562 -0.546875 1.65625 -0.675781 1.90625 -0.9375 C 2.15625 -1.195312 2.28125 -1.691406 2.28125 -2.421875 L 2.28125 -10.609375 C 2.28125 -11.390625 2.164062 -11.960938 1.9375 -12.328125 C 1.707031 -12.703125 1.269531 -12.890625 0.625 -12.890625 L 0.625 -13.4375 C 1.175781 -13.382812 1.710938 -13.359375 2.234375 -13.359375 C 2.960938 -13.359375 3.640625 -13.390625 4.265625 -13.453125 C 4.898438 -13.515625 5.488281 -13.609375 6.03125 -13.734375 Z M 6.03125 -13.734375 "/></g></g></g><g fill="#7a6200" fill-opacity="1"><g transform="translate(824.376751, 451.451711)"><g><path d="M 5.671875 4.890625 C 4.597656 4.890625 3.640625 4.796875 2.796875 4.609375 C 1.953125 4.429688 1.289062 4.15625 0.8125 3.78125 C 0.34375 3.40625 0.109375 2.953125 0.109375 2.421875 C 0.109375 1.878906 0.347656 1.394531 0.828125 0.96875 C 1.316406 0.550781 2.035156 0.21875 2.984375 -0.03125 L 3.21875 0.390625 C 2.894531 0.648438 2.65625 0.929688 2.5 1.234375 C 2.351562 1.535156 2.28125 1.851562 2.28125 2.1875 C 2.28125 2.914062 2.613281 3.472656 3.28125 3.859375 C 3.957031 4.253906 4.863281 4.453125 6 4.453125 C 6.78125 4.453125 7.476562 4.347656 8.09375 4.140625 C 8.707031 3.929688 9.191406 3.617188 9.546875 3.203125 C 9.910156 2.785156 10.09375 2.269531 10.09375 1.65625 C 10.09375 1.144531 9.898438 0.707031 9.515625 0.34375 C 9.128906 -0.0078125 8.367188 -0.1875 7.234375 -0.1875 L 5.609375 -0.1875 C 4.898438 -0.1875 4.28125 -0.265625 3.75 -0.421875 C 3.226562 -0.578125 2.816406 -0.820312 2.515625 -1.15625 C 2.222656 -1.488281 2.078125 -1.914062 2.078125 -2.4375 C 2.078125 -3.164062 2.363281 -3.804688 2.9375 -4.359375 C 3.507812 -4.921875 4.359375 -5.441406 5.484375 -5.921875 L 5.75 -5.71875 C 5.414062 -5.507812 5.101562 -5.285156 4.8125 -5.046875 C 4.53125 -4.816406 4.390625 -4.519531 4.390625 -4.15625 C 4.390625 -3.601562 4.738281 -3.328125 5.4375 -3.328125 L 8.265625 -3.328125 C 9.222656 -3.328125 10.078125 -3.210938 10.828125 -2.984375 C 11.578125 -2.765625 12.171875 -2.398438 12.609375 -1.890625 C 13.054688 -1.378906 13.28125 -0.710938 13.28125 0.109375 C 13.28125 0.953125 13.003906 1.738281 12.453125 2.46875 C 11.910156 3.195312 11.078125 3.78125 9.953125 4.21875 C 8.828125 4.664062 7.398438 4.890625 5.671875 4.890625 Z M 5.921875 -5.53125 C 4.941406 -5.53125 4.0625 -5.675781 3.28125 -5.96875 C 2.5 -6.269531 1.878906 -6.722656 1.421875 -7.328125 C 0.972656 -7.929688 0.75 -8.710938 0.75 -9.671875 C 0.75 -10.628906 0.972656 -11.414062 1.421875 -12.03125 C 1.878906 -12.644531 2.5 -13.09375 3.28125 -13.375 C 4.0625 -13.664062 4.941406 -13.8125 5.921875 -13.8125 C 6.910156 -13.8125 7.796875 -13.664062 8.578125 -13.375 C 9.359375 -13.09375 9.972656 -12.644531 10.421875 -12.03125 C 10.878906 -11.414062 11.109375 -10.628906 11.109375 -9.671875 C 11.109375 -8.710938 10.878906 -7.929688 10.421875 -7.328125 C 9.972656 -6.722656 9.359375 -6.269531 8.578125 -5.96875 C 7.796875 -5.675781 6.910156 -5.53125 5.921875 -5.53125 Z M 5.921875 -6 C 6.390625 -6 6.753906 -6.265625 7.015625 -6.796875 C 7.273438 -7.328125 7.40625 -8.285156 7.40625 -9.671875 C 7.40625 -11.054688 7.273438 -12.015625 7.015625 -12.546875 C 6.753906 -13.078125 6.390625 -13.34375 5.921875 -13.34375 C 5.472656 -13.34375 5.113281 -13.078125 4.84375 -12.546875 C 4.582031 -12.015625 4.453125 -11.054688 4.453125 -9.671875 C 4.453125 -8.285156 4.582031 -7.328125 4.84375 -6.796875 C 5.113281 -6.265625 5.472656 -6 5.921875 -6 Z M 9.984375 -11.5625 L 9.46875 -11.75 C 9.726562 -12.425781 10.144531 -12.988281 10.71875 -13.4375 C 11.300781 -13.894531 11.929688 -14.125 12.609375 -14.125 C 13.160156 -14.125 13.578125 -13.96875 13.859375 -13.65625 C 14.148438 -13.351562 14.296875 -12.960938 14.296875 -12.484375 C 14.296875 -11.960938 14.15625 -11.578125 13.875 -11.328125 C 13.601562 -11.078125 13.296875 -10.953125 12.953125 -10.953125 C 12.648438 -10.953125 12.375 -11.050781 12.125 -11.25 C 11.875 -11.457031 11.726562 -11.773438 11.6875 -12.203125 C 11.65625 -12.628906 11.804688 -13.179688 12.140625 -13.859375 L 12.328125 -13.703125 C 11.671875 -13.460938 11.175781 -13.179688 10.84375 -12.859375 C 10.507812 -12.535156 10.222656 -12.101562 9.984375 -11.5625 Z M 9.984375 -11.5625 "/></g></g></g><g fill="#7a6200" fill-opacity="1"><g transform="translate(838.750438, 451.451711)"><g><path d="M 4.015625 -20.15625 C 4.742188 -20.15625 5.316406 -19.972656 5.734375 -19.609375 C 6.160156 -19.253906 6.375 -18.765625 6.375 -18.140625 C 6.375 -17.523438 6.160156 -17.035156 5.734375 -16.671875 C 5.316406 -16.316406 4.742188 -16.140625 4.015625 -16.140625 C 3.285156 -16.140625 2.707031 -16.316406 2.28125 -16.671875 C 1.851562 -17.035156 1.640625 -17.523438 1.640625 -18.140625 C 1.640625 -18.765625 1.851562 -19.253906 2.28125 -19.609375 C 2.707031 -19.972656 3.285156 -20.15625 4.015625 -20.15625 Z M 6.03125 -13.734375 L 6.03125 -2.421875 C 6.03125 -1.691406 6.15625 -1.195312 6.40625 -0.9375 C 6.65625 -0.675781 7.085938 -0.546875 7.703125 -0.546875 L 7.703125 0 C 7.390625 -0.0195312 6.898438 -0.0390625 6.234375 -0.0625 C 5.578125 -0.09375 4.910156 -0.109375 4.234375 -0.109375 C 3.554688 -0.109375 2.867188 -0.09375 2.171875 -0.0625 C 1.484375 -0.0390625 0.96875 -0.0195312 0.625 0 L 0.625 -0.546875 C 1.226562 -0.546875 1.65625 -0.675781 1.90625 -0.9375 C 2.15625 -1.195312 2.28125 -1.691406 2.28125 -2.421875 L 2.28125 -10.609375 C 2.28125 -11.390625 2.164062 -11.960938 1.9375 -12.328125 C 1.707031 -12.703125 1.269531 -12.890625 0.625 -12.890625 L 0.625 -13.4375 C 1.175781 -13.382812 1.710938 -13.359375 2.234375 -13.359375 C 2.960938 -13.359375 3.640625 -13.390625 4.265625 -13.453125 C 4.898438 -13.515625 5.488281 -13.609375 6.03125 -13.734375 Z M 6.03125 -13.734375 "/></g></g></g><g fill="#7a6200" fill-opacity="1"><g transform="translate(846.937999, 451.451711)"><g><path d="M 5.90625 -17.703125 L 5.90625 -13.4375 L 8.96875 -13.4375 L 8.96875 -12.921875 L 5.90625 -12.921875 L 5.90625 -2.421875 C 5.90625 -1.898438 6 -1.53125 6.1875 -1.3125 C 6.375 -1.09375 6.660156 -0.984375 7.046875 -0.984375 C 7.359375 -0.984375 7.671875 -1.097656 7.984375 -1.328125 C 8.296875 -1.566406 8.570312 -1.972656 8.8125 -2.546875 L 9.25 -2.3125 C 8.976562 -1.53125 8.5625 -0.890625 8 -0.390625 C 7.4375 0.109375 6.664062 0.359375 5.6875 0.359375 C 5.125 0.359375 4.625 0.285156 4.1875 0.140625 C 3.75 -0.00390625 3.382812 -0.222656 3.09375 -0.515625 C 2.707031 -0.898438 2.453125 -1.375 2.328125 -1.9375 C 2.210938 -2.5 2.15625 -3.234375 2.15625 -4.140625 L 2.15625 -12.921875 L -0.03125 -12.921875 L -0.03125 -13.4375 L 2.15625 -13.4375 L 2.15625 -16.875 C 2.882812 -16.875 3.554688 -16.9375 4.171875 -17.0625 C 4.785156 -17.195312 5.363281 -17.410156 5.90625 -17.703125 Z M 5.90625 -17.703125 "/></g></g></g><g fill="#7a6200" fill-opacity="1"><g transform="translate(856.087275, 451.451711)"><g><path d="M 4.21875 0.1875 C 3.4375 0.1875 2.785156 0.0390625 2.265625 -0.25 C 1.742188 -0.550781 1.359375 -0.945312 1.109375 -1.4375 C 0.867188 -1.9375 0.75 -2.476562 0.75 -3.0625 C 0.75 -3.8125 0.914062 -4.421875 1.25 -4.890625 C 1.59375 -5.359375 2.03125 -5.738281 2.5625 -6.03125 C 3.101562 -6.320312 3.671875 -6.5625 4.265625 -6.75 C 4.867188 -6.945312 5.441406 -7.132812 5.984375 -7.3125 C 6.535156 -7.5 6.976562 -7.71875 7.3125 -7.96875 C 7.65625 -8.21875 7.828125 -8.539062 7.828125 -8.9375 L 7.828125 -10.96875 C 7.828125 -11.414062 7.753906 -11.816406 7.609375 -12.171875 C 7.460938 -12.535156 7.234375 -12.8125 6.921875 -13 C 6.617188 -13.1875 6.226562 -13.28125 5.75 -13.28125 C 5.394531 -13.28125 5.046875 -13.234375 4.703125 -13.140625 C 4.359375 -13.046875 4.070312 -12.882812 3.84375 -12.65625 C 4.332031 -12.488281 4.707031 -12.226562 4.96875 -11.875 C 5.238281 -11.519531 5.375 -11.113281 5.375 -10.65625 C 5.375 -10.070312 5.171875 -9.601562 4.765625 -9.25 C 4.359375 -8.90625 3.878906 -8.734375 3.328125 -8.734375 C 2.703125 -8.734375 2.226562 -8.925781 1.90625 -9.3125 C 1.59375 -9.707031 1.4375 -10.179688 1.4375 -10.734375 C 1.4375 -11.234375 1.5625 -11.648438 1.8125 -11.984375 C 2.0625 -12.316406 2.410156 -12.628906 2.859375 -12.921875 C 3.347656 -13.203125 3.929688 -13.421875 4.609375 -13.578125 C 5.296875 -13.734375 6.039062 -13.8125 6.84375 -13.8125 C 7.632812 -13.8125 8.347656 -13.726562 8.984375 -13.5625 C 9.628906 -13.394531 10.171875 -13.09375 10.609375 -12.65625 C 11.003906 -12.257812 11.257812 -11.769531 11.375 -11.1875 C 11.5 -10.613281 11.5625 -9.882812 11.5625 -9 L 11.5625 -1.921875 C 11.5625 -1.492188 11.601562 -1.195312 11.6875 -1.03125 C 11.78125 -0.863281 11.929688 -0.78125 12.140625 -0.78125 C 12.296875 -0.78125 12.445312 -0.820312 12.59375 -0.90625 C 12.738281 -1 12.898438 -1.101562 13.078125 -1.21875 L 13.34375 -0.78125 C 12.976562 -0.46875 12.554688 -0.226562 12.078125 -0.0625 C 11.597656 0.101562 11.066406 0.1875 10.484375 0.1875 C 9.835938 0.1875 9.320312 0.0976562 8.9375 -0.078125 C 8.5625 -0.265625 8.289062 -0.515625 8.125 -0.828125 C 7.957031 -1.140625 7.875 -1.503906 7.875 -1.921875 C 7.457031 -1.265625 6.953125 -0.75 6.359375 -0.375 C 5.773438 0 5.0625 0.1875 4.21875 0.1875 Z M 6.0625 -1.484375 C 6.40625 -1.484375 6.71875 -1.5625 7 -1.71875 C 7.289062 -1.882812 7.566406 -2.160156 7.828125 -2.546875 L 7.828125 -7.875 C 7.671875 -7.613281 7.453125 -7.378906 7.171875 -7.171875 C 6.898438 -6.960938 6.609375 -6.75 6.296875 -6.53125 C 5.984375 -6.320312 5.679688 -6.085938 5.390625 -5.828125 C 5.109375 -5.566406 4.878906 -5.242188 4.703125 -4.859375 C 4.535156 -4.484375 4.453125 -4.023438 4.453125 -3.484375 C 4.453125 -2.804688 4.597656 -2.300781 4.890625 -1.96875 C 5.179688 -1.644531 5.570312 -1.484375 6.0625 -1.484375 Z M 6.0625 -1.484375 "/></g></g></g><g fill="#7a6200" fill-opacity="1"><g transform="translate(869.551226, 451.451711)"><g><path d="M 5.921875 -20.359375 L 5.921875 -2.421875 C 5.921875 -1.691406 6.046875 -1.195312 6.296875 -0.9375 C 6.554688 -0.675781 6.988281 -0.546875 7.59375 -0.546875 L 7.59375 0 C 7.257812 -0.0195312 6.765625 -0.0390625 6.109375 -0.0625 C 5.453125 -0.09375 4.785156 -0.109375 4.109375 -0.109375 C 3.429688 -0.109375 2.75 -0.09375 2.0625 -0.0625 C 1.382812 -0.0390625 0.867188 -0.0195312 0.515625 0 L 0.515625 -0.546875 C 1.128906 -0.546875 1.5625 -0.675781 1.8125 -0.9375 C 2.0625 -1.195312 2.1875 -1.691406 2.1875 -2.421875 L 2.1875 -17.234375 C 2.1875 -18.015625 2.066406 -18.59375 1.828125 -18.96875 C 1.597656 -19.34375 1.160156 -19.53125 0.515625 -19.53125 L 0.515625 -20.078125 C 1.078125 -20.023438 1.613281 -20 2.125 -20 C 2.84375 -20 3.519531 -20.023438 4.15625 -20.078125 C 4.800781 -20.140625 5.390625 -20.234375 5.921875 -20.359375 Z M 5.921875 -20.359375 "/></g></g></g><g fill="#7a6200" fill-opacity="1"><g transform="translate(877.790765, 451.451711)"><g><path d="M 5.921875 -20.359375 L 5.921875 -2.421875 C 5.921875 -1.691406 6.046875 -1.195312 6.296875 -0.9375 C 6.554688 -0.675781 6.988281 -0.546875 7.59375 -0.546875 L 7.59375 0 C 7.257812 -0.0195312 6.765625 -0.0390625 6.109375 -0.0625 C 5.453125 -0.09375 4.785156 -0.109375 4.109375 -0.109375 C 3.429688 -0.109375 2.75 -0.09375 2.0625 -0.0625 C 1.382812 -0.0390625 0.867188 -0.0195312 0.515625 0 L 0.515625 -0.546875 C 1.128906 -0.546875 1.5625 -0.675781 1.8125 -0.9375 C 2.0625 -1.195312 2.1875 -1.691406 2.1875 -2.421875 L 2.1875 -17.234375 C 2.1875 -18.015625 2.066406 -18.59375 1.828125 -18.96875 C 1.597656 -19.34375 1.160156 -19.53125 0.515625 -19.53125 L 0.515625 -20.078125 C 1.078125 -20.023438 1.613281 -20 2.125 -20 C 2.84375 -20 3.519531 -20.023438 4.15625 -20.078125 C 4.800781 -20.140625 5.390625 -20.234375 5.921875 -20.359375 Z M 5.921875 -20.359375 "/></g></g></g><g fill="#7a6200" fill-opacity="1"><g transform="translate(885.874368, 451.451711)"><g><path d="M 13.34375 -13.4375 L 13.34375 -12.921875 C 13.007812 -12.835938 12.691406 -12.632812 12.390625 -12.3125 C 12.097656 -11.988281 11.816406 -11.445312 11.546875 -10.6875 L 7.875 -0.390625 L 6.921875 1.4375 L 1.25 -11.4375 C 0.957031 -12.113281 0.664062 -12.523438 0.375 -12.671875 C 0.09375 -12.816406 -0.148438 -12.890625 -0.359375 -12.890625 L -0.359375 -13.4375 C 0.210938 -13.382812 0.804688 -13.34375 1.421875 -13.3125 C 2.035156 -13.289062 2.628906 -13.28125 3.203125 -13.28125 C 3.910156 -13.28125 4.554688 -13.296875 5.140625 -13.328125 C 5.734375 -13.367188 6.289062 -13.40625 6.8125 -13.4375 L 6.8125 -12.890625 C 6.46875 -12.890625 6.140625 -12.867188 5.828125 -12.828125 C 5.523438 -12.785156 5.316406 -12.664062 5.203125 -12.46875 C 5.097656 -12.269531 5.148438 -11.925781 5.359375 -11.4375 L 8.625 -3.53125 L 8.390625 -3.375 L 10.328125 -8.765625 C 10.648438 -9.703125 10.785156 -10.46875 10.734375 -11.0625 C 10.679688 -11.65625 10.488281 -12.101562 10.15625 -12.40625 C 9.832031 -12.71875 9.382812 -12.890625 8.8125 -12.921875 L 8.8125 -13.4375 C 9.09375 -13.425781 9.378906 -13.414062 9.671875 -13.40625 C 9.960938 -13.394531 10.253906 -13.382812 10.546875 -13.375 C 10.847656 -13.363281 11.113281 -13.359375 11.34375 -13.359375 C 11.6875 -13.359375 12.046875 -13.367188 12.421875 -13.390625 C 12.804688 -13.410156 13.113281 -13.425781 13.34375 -13.4375 Z M 7.875 -0.390625 L 6.890625 2.390625 C 6.710938 2.828125 6.53125 3.195312 6.34375 3.5 C 6.164062 3.800781 5.96875 4.046875 5.75 4.234375 C 5.5 4.441406 5.179688 4.601562 4.796875 4.71875 C 4.421875 4.832031 3.984375 4.890625 3.484375 4.890625 C 3.066406 4.890625 2.632812 4.816406 2.1875 4.671875 C 1.75 4.535156 1.382812 4.3125 1.09375 4 C 0.800781 3.6875 0.65625 3.289062 0.65625 2.8125 C 0.65625 2.269531 0.84375 1.835938 1.21875 1.515625 C 1.601562 1.203125 2.109375 1.046875 2.734375 1.046875 C 3.304688 1.046875 3.773438 1.179688 4.140625 1.453125 C 4.503906 1.734375 4.6875 2.140625 4.6875 2.671875 C 4.6875 3.023438 4.578125 3.359375 4.359375 3.671875 C 4.140625 3.984375 3.8125 4.21875 3.375 4.375 C 3.46875 4.382812 3.570312 4.390625 3.6875 4.390625 C 3.8125 4.390625 3.910156 4.390625 3.984375 4.390625 C 4.503906 4.390625 4.960938 4.222656 5.359375 3.890625 C 5.753906 3.566406 6.082031 3.050781 6.34375 2.34375 L 7.25 -0.34375 Z M 7.875 -0.390625 "/></g></g></g></svg>